<?xml version="1.0" encoding="UTF-8" standalone="no"?>
<!-- Created with Inkscape (http://www.inkscape.org/) -->

<svg
   width="210mm"
   height="297mm"
   viewBox="0 0 210 297"
   version="1.1"
   id="svg1"
   inkscape:version="1.3.2 (091e20e, 2023-11-25, custom)"
   sodipodi:docname="folding.svg"
   xmlns:inkscape="http://www.inkscape.org/namespaces/inkscape"
   xmlns:sodipodi="http://sodipodi.sourceforge.net/DTD/sodipodi-0.dtd"
   xmlns="http://www.w3.org/2000/svg"
   xmlns:svg="http://www.w3.org/2000/svg">
  <sodipodi:namedview
     id="namedview1"
     pagecolor="#ffffff"
     bordercolor="#000000"
     borderopacity="0.25"
     inkscape:showpageshadow="2"
     inkscape:pageopacity="0.0"
     inkscape:pagecheckerboard="0"
     inkscape:deskcolor="#d1d1d1"
     inkscape:document-units="mm"
     inkscape:zoom="0.9412974"
     inkscape:cx="427.07013"
     inkscape:cy="568.89565"
     inkscape:window-width="1080"
     inkscape:window-height="1857"
     inkscape:window-x="1912"
     inkscape:window-y="-8"
     inkscape:window-maximized="1"
     inkscape:current-layer="layer1"
     inkscape:export-bgcolor="#ffffff00" />
  <defs
     id="defs1">
    <marker
       style="overflow:visible"
       id="ConcaveTriangle"
       refX="0"
       refY="0"
       orient="auto-start-reverse"
       inkscape:stockid="Concave triangle arrow"
       markerWidth="1.5"
       markerHeight="1.5"
       viewBox="0 0 1 1"
       inkscape:isstock="true"
       inkscape:collect="always"
       preserveAspectRatio="xMidYMid">
      <path
         transform="scale(0.7)"
         d="M -2,-4 9,0 -2,4 c 2,-2.33 2,-5.66 0,-8 z"
         style="fill:context-stroke;fill-rule:evenodd;stroke:none"
         id="path7" />
    </marker>
    <marker
       style="overflow:visible"
       id="ConcaveTriangle-7"
       refX="0"
       refY="0"
       orient="auto-start-reverse"
       inkscape:stockid="Concave triangle arrow"
       markerWidth="1"
       markerHeight="1"
       viewBox="0 0 1 1"
       inkscape:isstock="true"
       inkscape:collect="always"
       preserveAspectRatio="xMidYMid">
      <path
         transform="scale(0.7)"
         d="M -2,-4 9,0 -2,4 c 2,-2.33 2,-5.66 0,-8 z"
         style="fill:context-stroke;fill-rule:evenodd;stroke:none"
         id="path7-6" />
    </marker>
    <marker
       style="overflow:visible"
       id="ConcaveTriangle-7-2"
       refX="0"
       refY="0"
       orient="auto-start-reverse"
       inkscape:stockid="Concave triangle arrow"
       markerWidth="1"
       markerHeight="1"
       viewBox="0 0 1 1"
       inkscape:isstock="true"
       inkscape:collect="always"
       preserveAspectRatio="xMidYMid">
      <path
         transform="scale(0.7)"
         d="M -2,-4 9,0 -2,4 c 2,-2.33 2,-5.66 0,-8 z"
         style="fill:context-stroke;fill-rule:evenodd;stroke:none"
         id="path7-6-3" />
    </marker>
    <marker
       style="overflow:visible"
       id="ConcaveTriangle-7-27"
       refX="0"
       refY="0"
       orient="auto-start-reverse"
       inkscape:stockid="Concave triangle arrow"
       markerWidth="1"
       markerHeight="1"
       viewBox="0 0 1 1"
       inkscape:isstock="true"
       inkscape:collect="always"
       preserveAspectRatio="xMidYMid">
      <path
         transform="scale(0.7)"
         d="M -2,-4 9,0 -2,4 c 2,-2.33 2,-5.66 0,-8 z"
         style="fill:context-stroke;fill-rule:evenodd;stroke:none"
         id="path7-6-6" />
    </marker>
    <marker
       style="overflow:visible"
       id="ConcaveTriangle-2"
       refX="0"
       refY="0"
       orient="auto-start-reverse"
       inkscape:stockid="Concave triangle arrow"
       markerWidth="1"
       markerHeight="1"
       viewBox="0 0 1 1"
       inkscape:isstock="true"
       inkscape:collect="always"
       preserveAspectRatio="xMidYMid">
      <path
         transform="scale(0.7)"
         d="M -2,-4 9,0 -2,4 c 2,-2.33 2,-5.66 0,-8 z"
         style="fill:context-stroke;fill-rule:evenodd;stroke:none"
         id="path7-1" />
    </marker>
    <filter
       inkscape:collect="always"
       style="color-interpolation-filters:sRGB"
       id="filter22"
       x="-0.0191099"
       y="-0.030576256"
       width="1.0382198"
       height="1.0611525">
      <feGaussianBlur
         inkscape:collect="always"
         stdDeviation="3.0106989"
         id="feGaussianBlur22" />
    </filter>
  </defs>
  <g
     inkscape:label="Layer 1"
     inkscape:groupmode="layer"
     id="layer1">
    <text
       xml:space="preserve"
       style="font-style:normal;font-variant:normal;font-weight:normal;font-stretch:normal;font-size:4.9389px;line-height:1.1;font-family:Cambria;-inkscape-font-specification:Cambria;text-align:center;letter-spacing:-0.320146px;word-spacing:-0.0079375px;writing-mode:lr-tb;direction:ltr;text-anchor:middle;fill:#000000;fill-opacity:1;stroke:#000000;stroke-width:0.1;stroke-dasharray:none;stroke-dashoffset:0;stroke-opacity:1"
       x="8.9501848"
       y="78.177124"
       id="text11"><tspan
         sodipodi:role="line"
         id="tspan11"
         style="stroke-width:0.1"
         x="8.9501848"
         y="78.177124" /></text>
    <g
       id="g6">
      <g
         id="g3"
         transform="translate(9.9309803,-78.581859)">
        <g
           id="g2">
          <g
             id="g1">
            <path
               style="fill:#e9ddaf;fill-opacity:0.5;stroke:none;stroke-width:0.21294;stroke-dasharray:0.21294, 0.21294;stroke-dashoffset:0;stroke-opacity:1"
               d="m 505.76734,545.43826 c -0.50602,-0.81684 -2.19623,-1.83956 -3.75602,-2.27271 -4.43427,-1.23142 -22.7905,-0.92678 -44.15221,0.73273 -49.26073,3.82689 -74.62811,2.5133 -89.61783,-4.64064 -4.58148,-2.18653 -11.41917,-7.94775 -11.41917,-9.62142 0,-0.41451 0.85812,-1.31592 1.90693,-2.00312 7.31932,-4.79581 39.57347,-5.65514 91.65352,-2.44188 10.93714,0.67481 20.0353,0.67635 38.61484,0.007 13.36855,-0.48194 24.44333,-0.73938 24.61061,-0.57209 0.16729,0.16729 -1.32141,5.25271 -3.30823,11.30095 -3.1755,9.66685 -3.72365,10.81718 -4.53244,9.51163 z"
               id="path68"
               transform="scale(0.26458333)" />
            <path
               style="fill:#f4eed7;fill-opacity:0.723716;stroke:none;stroke-width:0.21294;stroke-dasharray:0.21294, 0.21294;stroke-dashoffset:0;stroke-opacity:1"
               d="m 343.67603,574.21701 c -27.17636,-1.13929 -53.56905,-2.93576 -54.35277,-3.69962 -0.2283,-0.22252 62.87464,-190.39049 63.38177,-191.00825 0.10146,-0.12359 3.52011,0.11582 7.59701,0.53201 4.07689,0.4162 15.61005,1.17619 25.62924,1.68887 10.01919,0.51268 18.21671,1.12537 18.21671,1.36153 0,0.23615 -10.98232,33.35717 -24.40516,73.60226 l -24.40516,73.17289 1.3476,2.30763 c 0.74118,1.2692 3.01892,3.57221 5.06164,5.11781 13.51042,10.22245 40.03704,12.4416 96.4878,8.07191 25.25519,-1.95493 42.14202,-1.85311 45.38426,0.27367 1.88092,1.2338 2.07458,1.72267 1.72245,4.34804 -0.54055,4.03011 -2.12936,6.20868 -6.75123,9.25731 -9.94951,6.56278 -33.68514,11.45171 -67.77444,13.95979 -10.79988,0.79459 -74.651,1.5377 -87.13972,1.01415 z"
               id="path69"
               transform="scale(0.26458333)" />
            <ellipse
               style="fill:#000000;fill-opacity:1;stroke:#000000;stroke-width:0.142346;stroke-dasharray:none;stroke-dashoffset:0;stroke-opacity:1"
               id="path36-0-38"
               cx="147.09851"
               cy="59.204086"
               rx="1.9614854"
               ry="2.7626431"
               transform="rotate(29.357662)" />
            <path
               style="fill:#e9ddaf;fill-opacity:0.667482;stroke:none;stroke-width:0.0196457;stroke-dasharray:none;stroke-dashoffset:0;stroke-opacity:1"
               d="m 94.405128,139.04253 c 0.03626,-0.10296 4.042122,-9.1777 8.521262,-23.86169 4.47914,-14.68398 7.61876,-23.432588 8.85117,-25.741892 1.74841,-3.276184 -0.35679,-0.817007 9.42066,2.650671 0,0 24.71867,-1.170232 25.41466,1.708953 1.04094,4.306144 -10.60546,44.261618 -10.72076,44.394888 -0.12436,0.14374 -5.41238,0.37269 -10.47819,0.45365 -3.79124,0.0606 -4.82851,0.0396 -7.80118,-0.15785 -9.20483,-0.61139 -16.00009,-0.6712 -19.852195,-0.17473 -1.37097,0.17669 -2.621084,0.4783 -3.126891,0.75443 -0.271436,0.14819 -0.2893,0.14612 -0.228536,-0.0264 z"
               id="path70"
               sodipodi:nodetypes="sssssscsssss" />
            <path
               style="fill:none;fill-opacity:1;stroke:#000000;stroke-width:0.2;stroke-dasharray:none;stroke-dashoffset:0;stroke-opacity:1"
               d="m 76.167894,151.15709 c 6.352683,1.03913 60.233386,3.66232 57.719556,-6.39298 -1.01049,-4.04199 -33.55641,4.64509 -39.453871,-4.20111 -2.68097,-4.02146 26.589441,-1.64391 27.215871,-1.64391 12.9196,0 26.13217,-1.40293 38.9059,-0.73063"
               id="path16" />
            <path
               style="fill:none;fill-opacity:1;stroke:#000000;stroke-width:0.2;stroke-dasharray:none;stroke-dashoffset:0;stroke-opacity:1"
               d="m 111.42077,88.621941 c 3.85423,-3.599834 20.46693,-0.74631 27.23995,-0.74631 6.77301,0 26.13217,-1.40293 38.9059,-0.73063"
               id="path62"
               sodipodi:nodetypes="czc" />
            <path
               style="fill:none;fill-opacity:1;stroke:#000000;stroke-width:0.2;stroke-dasharray:none;stroke-dashoffset:0;stroke-opacity:1"
               d="m 93.179164,100.11363 c 1.769966,0.28952 7.229406,0.70201 14.130666,0.92898"
               id="path16-8" />
            <path
               style="fill:#ffffff;fill-opacity:1;stroke:#000000;stroke-width:0.2;stroke-dasharray:none;stroke-dashoffset:0;stroke-opacity:1"
               d="M 94.432,139.553 111.42077,88.621941"
               id="path17"
               sodipodi:nodetypes="cc" />
            <path
               style="fill:#ffffff;fill-opacity:1;stroke:#000000;stroke-width:0.2;stroke-dasharray:none;stroke-dashoffset:0;stroke-opacity:1"
               d="M 160.55535,138.08856 177.56662,87.144999"
               id="path18" />
            <path
               style="fill:#ffffff;fill-opacity:1;stroke:#000000;stroke-width:0.2;stroke-dasharray:none;stroke-dashoffset:0;stroke-opacity:1"
               d="m 133.71509,146.52117 2.58648,-8.01193"
               id="path19"
               sodipodi:nodetypes="cc" />
            <path
               style="fill:#ffffff;fill-opacity:1;stroke:#000000;stroke-width:0.2;stroke-dasharray:none;stroke-dashoffset:0;stroke-opacity:1"
               d="M 76.167892,151.05719 93.179163,100.11363"
               id="path20" />
            <ellipse
               style="fill:#000000;fill-opacity:1;stroke:#000000;stroke-width:0.142346;stroke-dasharray:none;stroke-dashoffset:0;stroke-opacity:1"
               id="path36"
               cx="168.89064"
               cy="62.844639"
               rx="1.9614854"
               ry="2.7626431"
               transform="rotate(29.357662)" />
            <ellipse
               style="fill:#000000;fill-opacity:1;stroke:#000000;stroke-width:0.142346;stroke-dasharray:none;stroke-dashoffset:0;stroke-opacity:1"
               id="path36-0-4"
               cx="153.00359"
               cy="42.366669"
               rx="1.9614854"
               ry="2.7626431"
               transform="rotate(29.357662)" />
            <ellipse
               style="fill:#000000;fill-opacity:1;stroke:#000000;stroke-width:0.142346;stroke-dasharray:none;stroke-dashoffset:0;stroke-opacity:1"
               id="path36-0-6"
               cx="170.55836"
               cy="28.24218"
               rx="1.9614854"
               ry="2.7626431"
               transform="rotate(29.357662)" />
            <path
               style="fill:#f4eed7;fill-opacity:0.562347;stroke:none;stroke-width:0.0265591;stroke-dasharray:none;stroke-dashoffset:0;stroke-opacity:1"
               d="m 95.051609,138.89622 c 0,-0.19321 16.554151,-49.742771 16.725951,-50.063761 0.23429,-0.4378 1.74068,-1.0952 3.25746,-1.4216 2.67987,-0.57668 8.15946,-0.51566 16.06557,0.17892 5.01913,0.44095 9.71511,0.47575 18.05963,0.1338 13.92192,-0.57049 21.99406,-0.71714 26.58499,-0.48299 l 1.77936,0.0908 -8.46358,25.285391 -8.46359,25.28539 -8.35375,0.0448 c -5.77084,0.031 -10.3092,0.13638 -14.67814,0.34094 -9.6063,0.44977 -15.16316,0.52055 -19.46504,0.24793 -10.72835,-0.67987 -19.392883,-0.57979 -22.13534,0.25569 -0.809926,0.24674 -0.913521,0.25861 -0.913521,0.1047 z"
               id="path72" />
            <ellipse
               style="fill:#000000;fill-opacity:1;stroke:#000000;stroke-width:0.142346;stroke-dasharray:none;stroke-dashoffset:0;stroke-opacity:1"
               id="path36-0"
               cx="161.22662"
               cy="43.530502"
               rx="1.9614854"
               ry="2.7626431"
               transform="rotate(29.357662)" />
            <ellipse
               style="fill:#000000;fill-opacity:1;stroke:#000000;stroke-width:0.142346;stroke-dasharray:none;stroke-dashoffset:0;stroke-opacity:1"
               id="path36-0-1"
               cx="149.73192"
               cy="21.439318"
               rx="1.9614854"
               ry="2.7626431"
               transform="rotate(29.357662)" />
            <ellipse
               style="fill:#000000;fill-opacity:1;stroke:#000000;stroke-width:0.142346;stroke-dasharray:none;stroke-dashoffset:0;stroke-opacity:1"
               id="path36-0-7"
               cx="189.98682"
               cy="13.670897"
               rx="1.9614854"
               ry="2.7626431"
               transform="rotate(29.357662)" />
            <ellipse
               style="fill:#000000;fill-opacity:1;stroke:#000000;stroke-width:0.142346;stroke-dasharray:none;stroke-dashoffset:0;stroke-opacity:1"
               id="path36-0-3"
               cx="188.84816"
               cy="41.329006"
               rx="1.9614854"
               ry="2.7626431"
               transform="rotate(29.357662)" />
            <ellipse
               style="fill:#000000;fill-opacity:1;stroke:#000000;stroke-width:0.142346;stroke-dasharray:none;stroke-dashoffset:0;stroke-opacity:1"
               id="path36-0-18"
               cx="146.99341"
               cy="81.87207"
               rx="1.9614854"
               ry="2.7626431"
               transform="rotate(29.357662)" />
            <path
               style="fill:#f1e9c9;fill-opacity:1;stroke:none;stroke-width:0.446404;stroke-dasharray:none;stroke-dashoffset:0;stroke-opacity:1"
               d="m 100.10627,124.06331 c 0.40282,-1.1015 0.76079,-2.07975 0.79549,-2.1739 0.0393,-0.10669 0.14228,-0.12616 0.2733,-0.0517 0.26888,0.15284 0.3626,1.82958 0.11775,2.10665 -0.0959,0.1085 -0.16534,0.23499 -0.15434,0.28108 0.0813,0.34065 -1.260818,1.84058 -1.64692,1.84058 -0.06472,0 0.211908,-0.90123 0.61472,-2.00272 z"
               id="path73" />
          </g>
        </g>
      </g>
      <text
         xml:space="preserve"
         style="font-style:italic;font-weight:bold;font-size:4.9389px;font-family:Cambria;-inkscape-font-specification:'Cambria Bold Italic';fill:#000000;stroke:#000000;stroke-width:0.2;stroke-dasharray:none"
         x="155.28119"
         y="76.93631"
         id="text1-9"><tspan
           sodipodi:role="line"
           id="tspan1-8"
           style="font-style:normal;font-variant:normal;font-weight:normal;font-stretch:normal;font-family:'Arial Rounded MT Bold';-inkscape-font-specification:'Arial Rounded MT Bold, ';stroke-width:0.2;stroke-dasharray:none"
           x="155.28119"
           y="76.93631">(b)</tspan></text>
    </g>
    <g
       id="g5">
      <path
         style="fill:#ff0000;stroke:#ff0000;stroke-width:0.4;stroke-dasharray:none;stroke-dashoffset:0;stroke-opacity:1;marker-start:url(#ConcaveTriangle-7)"
         d="m 18.769413,14.092655 2.3537,13.209336"
         id="path4-2-9"
         sodipodi:nodetypes="cc" />
      <path
         style="fill:#e6e6e6;stroke:#000000;stroke-width:0.265777;stroke-dasharray:none;stroke-dashoffset:0"
         d="M 20.807609,43.057324 C 29.016384,45.86902 38.20546,49.604338 41.196899,40.63003 50.2674,13.418521 25.820959,43.047119 21.940348,30.111746 21.238579,27.772523 20.166277,24.753852 20.969428,22.344397 26.117097,6.901392 51.50634,14.691848 58.51161,21.697119 c 8.206072,8.206075 -8.869154,18.524785 -6.310973,24.92024 6.618928,16.54731 17.332342,-19.330219 23.302046,10.51828 0.549103,2.74553 0.837072,8.386656 -1.456377,10.680106 -4.156911,4.1569 -21.462929,6.84568 -24.434786,4.36913 C 46.639663,69.708325 61.503152,55.695869 53.495195,57.297459 43.440509,59.308399 26.009886,76.106375 14.82028,66.035725 4.8921955,57.100459 12.598834,40.245629 20.807609,43.057324 Z"
         id="path3"
         sodipodi:nodetypes="zssssssszssz" />
      <text
         xml:space="preserve"
         style="font-style:normal;font-variant:normal;font-weight:normal;font-stretch:normal;font-size:2.8416px;line-height:1.1;font-family:Arial;-inkscape-font-specification:Arial;text-align:center;letter-spacing:-0.064469px;word-spacing:-0.0015984px;writing-mode:lr-tb;direction:ltr;text-anchor:middle;fill:#ffffff;stroke:#000000;stroke-width:0.120824;stroke-dasharray:none;stroke-dashoffset:0"
         x="30.863199"
         y="46.623177"
         id="text4"><tspan
           sodipodi:role="line"
           id="tspan4"
           style="fill:#1a1a1a;stroke-width:0.120824"
           x="30.830965"
           y="46.623177">x</tspan></text>
      <path
         style="fill:#1a1a1a;stroke:#000000;stroke-width:0.2;stroke-dasharray:0.6, 0.6;stroke-dashoffset:0"
         d="M 26.218828,55.899965 46.607402,15.254816"
         id="path4"
         sodipodi:nodetypes="cc" />
      <ellipse
         style="fill:#1a1a1a;stroke:#000000;stroke-width:0.100124;stroke-dasharray:none;stroke-dashoffset:0"
         id="path5"
         cx="26.240198"
         cy="56.099762"
         rx="0.907938"
         ry="0.90020406" />
      <ellipse
         style="fill:#003fff;fill-opacity:1;stroke:#000000;stroke-width:0;stroke-dasharray:none;stroke-dashoffset:0"
         id="path5-2"
         cx="15.04634"
         cy="66.419586"
         rx="0.907938"
         ry="0.90020406" />
      <text
         xml:space="preserve"
         style="font-style:normal;font-variant:normal;font-weight:normal;font-stretch:normal;font-size:2.8416px;line-height:1.1;font-family:Arial;-inkscape-font-specification:Arial;text-align:center;letter-spacing:-0.064469px;word-spacing:-0.0015984px;writing-mode:lr-tb;direction:ltr;text-anchor:middle;fill:#ffffff;stroke:#000000;stroke-width:0.120824;stroke-dasharray:none;stroke-dashoffset:0"
         x="39.736832"
         y="29.648695"
         id="text4-8"><tspan
           sodipodi:role="line"
           id="tspan4-2"
           style="fill:#1a1a1a;stroke-width:0.120824"
           x="39.704597"
           y="29.648695">x</tspan></text>
      <text
         xml:space="preserve"
         style="font-style:normal;font-variant:normal;font-weight:normal;font-stretch:normal;font-size:2.8416px;line-height:1.1;font-family:Arial;-inkscape-font-specification:Arial;text-align:center;letter-spacing:-0.064469px;word-spacing:-0.0015984px;writing-mode:lr-tb;direction:ltr;text-anchor:middle;fill:#ffffff;stroke:#000000;stroke-width:0.120824;stroke-dasharray:none;stroke-dashoffset:0"
         x="46.216496"
         y="16.055025"
         id="text4-7"><tspan
           sodipodi:role="line"
           id="tspan4-1"
           style="fill:#1a1a1a;stroke-width:0.120824"
           x="46.184261"
           y="16.055025">x</tspan></text>
      <path
         style="fill:#1a1a1a;stroke:#000000;stroke-width:0.3;stroke-dasharray:none;stroke-dashoffset:0;marker-start:url(#ConcaveTriangle)"
         d="m 21.123112,27.301991 5.095716,28.597974"
         id="path4-2"
         sodipodi:nodetypes="cc" />
      <path
         style="fill:none;fill-opacity:1;stroke:#0034fe;stroke-width:0.4;stroke-dasharray:none;stroke-dashoffset:0;stroke-opacity:1;marker-end:url(#ConcaveTriangle-7-2)"
         d="M 14.82028,66.035725 C 9.5550795,61.297025 9.2497495,54.330887 11.348778,49.252087"
         id="path6" />
      <text
         xml:space="preserve"
         style="font-style:normal;font-variant:normal;font-weight:normal;font-stretch:normal;font-size:4.93889px;line-height:1.1;font-family:Arial;-inkscape-font-specification:Arial;text-align:center;letter-spacing:-0.320146px;word-spacing:-0.0079375px;writing-mode:lr-tb;direction:ltr;text-anchor:middle;fill:none;fill-opacity:1;stroke:#0034fe;stroke-width:0.1;stroke-dasharray:none;stroke-dashoffset:0;stroke-opacity:1"
         x="72.584656"
         y="42.541992"
         id="text6"><tspan
           sodipodi:role="line"
           id="tspan6"
           style="font-style:normal;font-variant:normal;font-weight:normal;font-stretch:normal;font-size:4.93889px;font-family:Cambria;-inkscape-font-specification:Cambria;fill:#000000;stroke:#000000;stroke-width:0.1;stroke-dasharray:none;stroke-opacity:1"
           x="72.424583"
           y="42.541992"><tspan
   style="font-style:italic;stroke-width:0.1;stroke-dasharray:none"
   id="tspan9">B</tspan>(<tspan
   style="font-style:italic;stroke:#000000;stroke-width:0.1;stroke-dasharray:none;stroke-opacity:1"
   id="tspan10">s</tspan>)</tspan></text>
      <text
         xml:space="preserve"
         style="font-style:normal;font-variant:normal;font-weight:normal;font-stretch:normal;font-size:4.93889px;line-height:1.1;font-family:Arial;-inkscape-font-specification:Arial;text-align:center;letter-spacing:-0.320146px;word-spacing:-0.0079375px;writing-mode:lr-tb;direction:ltr;text-anchor:middle;fill:none;fill-opacity:1;stroke:#0034fe;stroke-width:0;stroke-dasharray:none;stroke-dashoffset:0;stroke-opacity:1"
         x="18.626802"
         y="38.376778"
         id="text6-7"><tspan
           sodipodi:role="line"
           id="tspan6-4"
           style="font-style:normal;font-variant:normal;font-weight:bold;font-stretch:normal;font-size:4.93889px;font-family:Cambria;-inkscape-font-specification:Cambria;fill:#000000;stroke:#000000;stroke-width:0;stroke-dasharray:none;stroke-opacity:1"
           x="18.46673"
           y="38.376778">B<tspan
   style="stroke:none;stroke-width:0;stroke-dasharray:none"
   id="tspan13" /></tspan></text>
      <text
         xml:space="preserve"
         style="font-style:normal;font-variant:normal;font-weight:normal;font-stretch:normal;font-size:4.93889px;line-height:1.1;font-family:Arial;-inkscape-font-specification:Arial;text-align:center;letter-spacing:-0.320146px;word-spacing:-0.0079375px;writing-mode:lr-tb;direction:ltr;text-anchor:middle;fill:#0000ff;fill-opacity:1;stroke:#004dfe;stroke-width:0.1;stroke-dasharray:none;stroke-dashoffset:0;stroke-opacity:1"
         x="14.361909"
         y="58.524254"
         id="text6-0"><tspan
           sodipodi:role="line"
           id="tspan6-9"
           style="font-style:italic;font-variant:normal;font-weight:normal;font-stretch:normal;font-size:4.93889px;font-family:Cambria;-inkscape-font-specification:Cambria;fill:#0000ff;fill-opacity:1;stroke:#004dfe;stroke-width:0.1;stroke-dasharray:none;stroke-opacity:1"
           x="14.201836"
           y="58.524254">s</tspan></text>
      <text
         xml:space="preserve"
         style="font-style:normal;font-variant:normal;font-weight:normal;font-stretch:normal;font-size:4.93889px;line-height:1.1;font-family:Arial;-inkscape-font-specification:Arial;text-align:center;letter-spacing:-0.320146px;word-spacing:-0.0079375px;writing-mode:lr-tb;direction:ltr;text-anchor:middle;fill:#0000ff;fill-opacity:1;stroke:#004dfe;stroke-width:0.1;stroke-dasharray:none;stroke-dashoffset:0;stroke-opacity:1"
         x="25.575594"
         y="39.822735"
         id="text6-0-3"><tspan
           sodipodi:role="line"
           id="tspan6-9-1"
           style="font-style:italic;font-variant:normal;font-weight:normal;font-stretch:normal;font-size:4.93889px;font-family:Cambria;-inkscape-font-specification:Cambria;fill:#000000;fill-opacity:1;stroke:#000000;stroke-width:0.1;stroke-dasharray:none;stroke-opacity:1"
           x="25.415522"
           y="39.822735">r</tspan></text>
      <text
         xml:space="preserve"
         style="font-style:italic;font-weight:bold;font-size:4.9389px;font-family:Cambria;-inkscape-font-specification:'Cambria Bold Italic';fill:#000000;stroke:#000000;stroke-width:0.2;stroke-dasharray:none"
         x="33.448956"
         y="76.93631"
         id="text1"><tspan
           sodipodi:role="line"
           id="tspan1"
           style="font-style:normal;font-variant:normal;font-weight:normal;font-stretch:normal;font-family:'Arial Rounded MT Bold';-inkscape-font-specification:'Arial Rounded MT Bold, ';stroke-width:0.2;stroke-dasharray:none"
           x="33.448956"
           y="76.93631">(a)</tspan></text>
      <text
         xml:space="preserve"
         style="font-style:normal;font-variant:normal;font-weight:normal;font-stretch:normal;font-size:4.93889px;line-height:0.7;font-family:Arial;-inkscape-font-specification:Arial;text-align:center;letter-spacing:-0.320146px;word-spacing:-0.0079375px;writing-mode:lr-tb;direction:ltr;text-anchor:middle;fill:#ff0000;fill-opacity:1;stroke:#0034fe;stroke-width:0.05;stroke-dasharray:none;stroke-dashoffset:0;stroke-opacity:1"
         x="13.330431"
         y="21.144371"
         id="text6-7-9-1"><tspan
           sodipodi:role="line"
           id="tspan6-4-8-2"
           style="font-style:normal;font-variant:normal;font-weight:bold;font-stretch:normal;font-size:4.93889px;line-height:0.7;font-family:Cambria;-inkscape-font-specification:Cambria;fill:#ff0000;stroke:#000000;stroke-width:0.05;stroke-dasharray:none;stroke-opacity:1"
           x="13.330431"
           y="21.144371">∂B</tspan><tspan
           sodipodi:role="line"
           style="font-style:normal;font-variant:normal;font-weight:bold;font-stretch:normal;font-size:4.93889px;line-height:0.7;font-family:Cambria;-inkscape-font-specification:Cambria;fill:#ff0000;stroke:#000000;stroke-width:0.05;stroke-dasharray:none;stroke-opacity:1"
           x="13.330431"
           y="24.611855"
           id="tspan3">----</tspan><tspan
           sodipodi:role="line"
           style="font-style:normal;font-variant:normal;font-weight:bold;font-stretch:normal;font-size:4.93889px;line-height:0.7;font-family:Cambria;-inkscape-font-specification:Cambria;fill:#ff0000;stroke:#000000;stroke-width:0.05;stroke-dasharray:none;stroke-opacity:1"
           x="13.170359"
           y="28.079338"
           id="tspan2">∂s</tspan></text>
    </g>
    <g
       id="g7"
       inkscape:export-filename="Figures\Figure15.png"
       inkscape:export-xdpi="96"
       inkscape:export-ydpi="96">
      <path
         style="fill:#e6e6e6;fill-opacity:1;stroke:#000000;stroke-width:0;stroke-dasharray:none;stroke-opacity:1;filter:url(#filter22)"
         d="m 576.07307,330.83835 c -4.39799,-2.52177 -10.24549,-8.88737 -17.29753,-18.83015 -10.0023,-14.10236 -14.58315,-19.15627 -20.95402,-23.11785 -2.44465,-1.52015 -7.34986,-3.0761 -10.81758,-3.43138 -3.19715,-0.32755 -3.52768,-0.25931 -4.77244,0.98546 -1.94402,1.94401 -2.17416,4.36103 -1.17361,12.32559 1.14008,9.07528 0.77336,10.92163 -2.42326,12.20067 -4.91759,1.96763 -18.52553,2.00028 -21.4996,0.0516 -1.03255,-0.67656 -1.19228,-1.1171 -0.9215,-2.54162 0.72666,-3.82283 2.59117,-7.61042 7.18017,-14.58589 7.0558,-10.72511 8.58121,-14.65522 7.39625,-19.05584 -0.66381,-2.46519 -2.74,-4.59626 -5.31698,-5.45752 -3.19981,-1.06942 -14.19173,-0.67711 -29.0881,1.03818 -16.75419,1.92921 -20.36201,1.86429 -25.30198,-0.45526 -7.87311,-3.69681 -10.23147,-7.44847 -15.20627,-24.19 -3.28799,-11.06498 -5.98835,-15.50457 -10.86711,-17.86633 -4.33363,-2.09788 -8.22834,-1.32036 -19.68901,3.93061 -10.47186,4.79792 -13.28223,5.15041 -14.65428,1.83801 -2.05476,-4.96064 0.0472,-11.80228 7.00422,-22.79748 5.87688,-9.28815 5.67743,-8.87682 10.93435,-22.54975 6.44115,-16.75305 7.57611,-20.26486 7.57611,-23.44209 0,-2.47539 -0.1881,-2.93198 -1.78576,-4.33474 -0.98217,-0.86236 -3.67128,-2.24436 -5.9758,-3.07111 -2.30451,-0.82676 -6.16265,-2.24283 -8.57364,-3.14682 l -4.3836,-1.64361 3.30277,-2.37846 c 4.60195,-3.31404 12.69405,-11.44528 21.66181,-21.76659 21.96409,-25.27923 33.32497,-32.802695 48.7972,-32.314756 6.75502,0.21303 10.09831,1.503785 14.46804,5.585726 8.92278,8.33511 13.71041,20.9842 22.78304,60.19348 4.39714,19.00322 7.14638,29.33199 10.1253,38.04031 2.44777,7.1556 7.37046,17.66416 10.2706,21.92483 1.07187,1.5747 1.87713,2.93481 1.78947,3.02248 -0.25338,0.25337 -32.09371,-21.76253 -32.3267,-22.35221 -0.11543,-0.29215 0.32795,-0.76714 0.98528,-1.05553 0.65734,-0.28839 1.19516,-0.67933 1.19516,-0.86876 0,-0.409 -11.62872,-3.35627 -11.95502,-3.02998 -0.12354,0.12354 1.36718,2.45989 3.31271,5.19189 l 3.5373,4.96727 0.57187,-1.69846 0.57186,-1.69846 20.7048,14.1913 c 11.38764,7.80521 20.82431,14.34046 20.97039,14.52278 0.55194,0.68888 9.43883,7.98862 9.72554,7.98862 0.16507,0 0.16332,-0.84298 -0.004,-1.87328 l -0.30399,-1.87329 1.53255,0.58393 c 3.25014,1.23836 10.27398,2.64974 15.80748,3.17636 10.56196,1.00519 23.09025,-0.74359 36.25221,-5.06031 10.11715,-3.31812 17.81347,-6.673 38.97698,-16.99031 37.35583,-18.21116 49.16534,-22.00809 66.4993,-21.3805 9.45662,0.34238 13.91097,1.46321 22.20805,5.58811 l 6.10859,3.03689 0.39984,2.8291 c 0.6278,4.44219 3.23622,10.00419 9.8447,20.99211 6.77458,11.26408 8.70162,15.19428 10.29261,20.99172 1.01537,3.69991 1.02647,4.03523 0.20483,6.18665 -0.4778,1.2511 -2.29891,4.27136 -4.04692,6.7117 -3.25852,4.5491 -4.02579,6.22525 -3.48947,7.62289 0.40851,1.06455 2.11275,1.01644 11.21928,-0.31675 6.63471,-0.97131 7.80834,-1.02006 9.12365,-0.37902 1.37651,0.67088 1.50264,0.96793 1.43187,3.37223 -0.0882,2.99618 -3.16665,10.81089 -5.04735,12.81281 -2.89492,3.0815 -7.17158,0.72853 -16.70506,-9.19093 -8.03864,-8.3641 -7.92554,-8.36511 -14.05858,0.1261 -1.70761,2.36419 -4.07247,5.17281 -5.25526,6.24138 -1.87171,1.69098 -2.49509,1.94286 -4.80839,1.94286 -11.68204,0 -53.78292,-10.09488 -57.83156,-13.86676 l -1.15135,-1.07264 -12.071,11.64768 c -30.85967,29.77744 -49.24347,43.95066 -62.76526,48.38964 -5.04027,1.65463 -8.66292,1.48701 -12.24432,-0.56653 z m -78.6558,-95.12645 c 0.31085,-0.80326 0.22608,-1.56881 -0.25851,-2.33469 -0.64132,-1.01359 -0.60627,-1.16955 0.31715,-1.41102 0.61307,-0.16032 1.03816,-0.72685 1.03816,-1.38358 0,-0.95625 -0.32007,-1.11209 -2.28408,-1.11209 -1.25624,0 -2.57092,0.28683 -2.9215,0.63741 -0.81546,0.81546 -0.82491,2.90228 -0.0154,3.40257 0.41214,0.25473 0.23293,0.52835 -0.53118,0.81101 -0.66521,0.24608 -1.15318,0.88337 -1.15318,1.50607 0,0.94218 0.33999,1.07948 2.67302,1.07948 2.28087,0 2.74088,-0.17534 3.13554,-1.19516 z m -9.52683,-3.85107 c 0,-0.43822 -0.23903,-0.79677 -0.53118,-0.79677 -0.29215,0 -0.53119,-0.23903 -0.53119,-0.53118 0,-0.29215 0.61597,-0.53118 1.36882,-0.53118 0.80466,0 2.00875,-0.63994 2.9215,-1.55269 2.93109,-2.93109 1.49197,-7.57091 -2.58699,-8.34062 -1.08291,-0.20435 -1.67013,-0.47219 -1.30494,-0.5952 0.36519,-0.12301 0.66398,-0.56229 0.66398,-0.97616 0,-0.56562 -0.79157,-0.75251 -3.18709,-0.75251 -2.39553,0 -3.18709,0.18689 -3.18709,0.75251 0,0.41387 0.29879,0.85315 0.66397,0.97616 0.36519,0.12301 -0.22203,0.39085 -1.30493,0.5952 -5.55608,1.04845 -5.47952,9.89331 0.0856,9.89331 0.88973,0 1.61769,0.23903 1.61769,0.53118 0,0.29215 -0.23903,0.53118 -0.53118,0.53118 -0.29215,0 -0.53118,0.35855 -0.53118,0.79677 0,0.61972 0.70824,0.79678 3.18709,0.79678 2.47885,0 3.18709,-0.17706 3.18709,-0.79678 z"
         id="path22"
         transform="matrix(0.26458333,0,0,0.26458333,-53.947183,73.52784)" />
      <text
         xml:space="preserve"
         style="font-style:normal;font-variant:normal;font-weight:normal;font-stretch:normal;font-size:4.93889px;line-height:1.1;font-family:Arial;-inkscape-font-specification:Arial;text-align:center;letter-spacing:-0.320146px;word-spacing:-0.0079375px;writing-mode:lr-tb;direction:ltr;text-anchor:middle;fill:none;fill-opacity:1;stroke:#0034fe;stroke-width:0.1;stroke-dasharray:none;stroke-dashoffset:0;stroke-opacity:1"
         x="123.91817"
         y="140.00928"
         id="text6-1"><tspan
           sodipodi:role="line"
           id="tspan6-1"
           style="font-style:normal;font-variant:normal;font-weight:normal;font-stretch:normal;font-size:4.93889px;font-family:Cambria;-inkscape-font-specification:Cambria;fill:#000000;stroke:#000000;stroke-width:0.1;stroke-dasharray:none;stroke-opacity:1"
           x="123.75809"
           y="140.00928"><tspan
   style="font-style:italic;stroke-width:0.1;stroke-dasharray:none"
   id="tspan9-3">B</tspan>(<tspan
   style="font-style:italic;stroke:#000000;stroke-width:0.1;stroke-dasharray:none;stroke-opacity:1"
   id="tspan10-8">s</tspan>)</tspan></text>
      <text
         xml:space="preserve"
         style="font-style:normal;font-variant:normal;font-weight:normal;font-stretch:normal;font-size:4.93889px;line-height:1.1;font-family:Arial;-inkscape-font-specification:Arial;text-align:center;letter-spacing:-0.320146px;word-spacing:-0.0079375px;writing-mode:lr-tb;direction:ltr;text-anchor:middle;fill:none;fill-opacity:1;stroke:#0034fe;stroke-width:0.1;stroke-dasharray:none;stroke-dashoffset:0;stroke-opacity:1"
         x="132.64943"
         y="109.05302"
         id="text6-79"><tspan
           sodipodi:role="line"
           id="tspan6-3"
           style="font-style:normal;font-variant:normal;font-weight:normal;font-stretch:normal;font-size:4.93889px;font-family:Cambria;-inkscape-font-specification:Cambria;fill:#000000;stroke:#000000;stroke-width:0.1;stroke-dasharray:none;stroke-opacity:1"
           x="132.48935"
           y="109.05302"><tspan
   style="font-style:italic"
   id="tspan23">A</tspan>(<tspan
   style="font-style:italic;stroke:#000000;stroke-width:0.1;stroke-dasharray:none;stroke-opacity:1"
   id="tspan10-9">s</tspan>)</tspan></text>
      <path
         style="fill:none;fill-opacity:1;stroke:#000000;stroke-width:0.4;stroke-dasharray:none;stroke-opacity:1"
         d="m 50.194317,113.86335 c 6.76766,-3.948 11.62295,-16.198215 20.80019,-15.178522 10.9696,1.218845 7.36607,33.010052 19.39478,37.384132 17.678143,6.42841 34.142223,-18.18616 49.751813,-8.15143"
         id="path8" />
      <path
         style="fill:none;fill-opacity:1;stroke:#0000ff;stroke-width:0.4;stroke-dasharray:none;stroke-opacity:1;marker-start:url(#ConcaveTriangle-7)"
         d="m 90.389287,136.06896 c 17.678143,6.42841 34.142223,-18.18616 49.751813,-8.15143"
         id="path14" />
      <path
         style="fill:#ff0000;stroke:#ff0000;stroke-width:0.4;stroke-dasharray:none;stroke-dashoffset:0;stroke-opacity:1;marker-start:url(#ConcaveTriangle-7-27)"
         d="m 76.847867,127.23767 11.05991,7.59637"
         id="path4-2-9-2"
         sodipodi:nodetypes="cc" />
      <path
         style="fill:#1a1a1a;stroke:#000000;stroke-width:0.4;stroke-dasharray:none;stroke-dashoffset:0;marker-start:url(#ConcaveTriangle-2)"
         d="M 99.401517,118.06092 88.721167,135.6655"
         id="path4-2-5"
         sodipodi:nodetypes="cc" />
      <text
         xml:space="preserve"
         style="font-style:normal;font-variant:normal;font-weight:normal;font-stretch:normal;font-size:4.93889px;line-height:1.1;font-family:Arial;-inkscape-font-specification:Arial;text-align:center;letter-spacing:-0.320146px;word-spacing:-0.0079375px;writing-mode:lr-tb;direction:ltr;text-anchor:middle;fill:#0000ff;fill-opacity:1;stroke:#004dfe;stroke-width:0.1;stroke-dasharray:none;stroke-dashoffset:0;stroke-opacity:1"
         x="103.15232"
         y="131.2198"
         id="text6-0-9"><tspan
           sodipodi:role="line"
           id="tspan6-9-2"
           style="font-style:italic;font-variant:normal;font-weight:normal;font-stretch:normal;font-size:4.93889px;font-family:Cambria;-inkscape-font-specification:Cambria;fill:#0000ff;fill-opacity:1;stroke:#004dfe;stroke-width:0.1;stroke-dasharray:none;stroke-opacity:1"
           x="102.99224"
           y="131.2198">s</tspan></text>
      <path
         style="fill:none;fill-opacity:1;stroke:#000000;stroke-width:0.4;stroke-dasharray:2.4, 2.4;stroke-dashoffset:0;stroke-opacity:1"
         d="m 74.599127,82.457992 c 25.04588,-8.808074 27.879033,13.904795 44.728003,20.767598 12.05044,4.9083 22.12748,-13.420897 26.16434,7.73186"
         id="path23" />
      <text
         xml:space="preserve"
         style="font-style:italic;font-weight:bold;font-size:4.9389px;font-family:Cambria;-inkscape-font-specification:'Cambria Bold Italic';fill:#000000;stroke:#000000;stroke-width:0.2;stroke-dasharray:none"
         x="39.012669"
         y="125.35449"
         id="text1-2"
         inkscape:export-filename="text1-2.png"
         inkscape:export-xdpi="96"
         inkscape:export-ydpi="96"><tspan
           sodipodi:role="line"
           id="tspan1-0"
           style="font-style:normal;font-variant:normal;font-weight:normal;font-stretch:normal;font-family:'Arial Rounded MT Bold';-inkscape-font-specification:'Arial Rounded MT Bold, ';stroke-width:0.2;stroke-dasharray:none"
           x="39.012669"
           y="125.35449">(c)</tspan></text>
      <text
         xml:space="preserve"
         style="font-style:normal;font-variant:normal;font-weight:normal;font-stretch:normal;font-size:4.93889px;line-height:0.7;font-family:Arial;-inkscape-font-specification:Arial;text-align:center;letter-spacing:-0.320146px;word-spacing:-0.0079375px;writing-mode:lr-tb;direction:ltr;text-anchor:middle;fill:#ff0000;fill-opacity:1;stroke:#0034fe;stroke-width:0.05;stroke-dasharray:none;stroke-dashoffset:0;stroke-opacity:1"
         x="72.541473"
         y="135.22687"
         id="text6-7-9-1-3"><tspan
           sodipodi:role="line"
           id="tspan6-4-8-2-4"
           style="font-style:normal;font-variant:normal;font-weight:bold;font-stretch:normal;font-size:4.93889px;line-height:0.7;font-family:Cambria;-inkscape-font-specification:Cambria;fill:#ff0000;stroke:#000000;stroke-width:0.05;stroke-dasharray:none;stroke-opacity:1"
           x="72.541473"
           y="135.22687">∂Φ</tspan><tspan
           sodipodi:role="line"
           style="font-style:normal;font-variant:normal;font-weight:bold;font-stretch:normal;font-size:4.93889px;line-height:0.7;font-family:Cambria;-inkscape-font-specification:Cambria;fill:#ff0000;stroke:#000000;stroke-width:0.05;stroke-dasharray:none;stroke-opacity:1"
           x="72.541473"
           y="138.69435"
           id="tspan3-3">----</tspan><tspan
           sodipodi:role="line"
           style="font-style:normal;font-variant:normal;font-weight:bold;font-stretch:normal;font-size:4.93889px;line-height:0.7;font-family:Cambria;-inkscape-font-specification:Cambria;fill:#ff0000;stroke:#000000;stroke-width:0.05;stroke-dasharray:none;stroke-opacity:1"
           x="72.381401"
           y="142.16183"
           id="tspan2-5">∂s</tspan></text>
      <text
         xml:space="preserve"
         style="font-style:normal;font-variant:normal;font-weight:normal;font-stretch:normal;font-size:4.93889px;line-height:0.7;font-family:Arial;-inkscape-font-specification:Arial;text-align:center;letter-spacing:-0.320146px;word-spacing:-0.0079375px;writing-mode:lr-tb;direction:ltr;text-anchor:middle;fill:#000000;fill-opacity:1;stroke:#0034fe;stroke-width:0.05;stroke-dasharray:none;stroke-dashoffset:0;stroke-opacity:1"
         x="90.028847"
         y="113.32113"
         id="text6-7-9-1-3-6"><tspan
           sodipodi:role="line"
           id="tspan6-4-8-2-4-1"
           style="font-style:normal;font-variant:normal;font-weight:bold;font-stretch:normal;font-size:4.93889px;line-height:0.7;font-family:Cambria;-inkscape-font-specification:Cambria;fill:#000000;stroke:#000000;stroke-width:0.05;stroke-dasharray:none;stroke-opacity:1"
           x="90.028847"
           y="113.32113">∂Φ</tspan><tspan
           sodipodi:role="line"
           style="font-style:normal;font-variant:normal;font-weight:bold;font-stretch:normal;font-size:4.93889px;line-height:0.7;font-family:Cambria;-inkscape-font-specification:Cambria;fill:#000000;stroke:#000000;stroke-width:0.05;stroke-dasharray:none;stroke-opacity:1"
           x="90.028847"
           y="116.78861"
           id="tspan3-3-0">----</tspan><tspan
           sodipodi:role="line"
           style="font-style:normal;font-variant:normal;font-weight:bold;font-stretch:normal;font-size:4.93889px;line-height:0.7;font-family:Cambria;-inkscape-font-specification:Cambria;fill:#000000;stroke:#000000;stroke-width:0.05;stroke-dasharray:none;stroke-opacity:1"
           x="89.868774"
           y="120.2561"
           id="tspan2-5-5">∂r</tspan></text>
    </g>
  </g>
</svg>
